<?xml version="1.0" encoding="utf-8"?>

<!DOCTYPE svg PUBLIC "-//W3C//DTD SVG 1.1//EN" "http://www.w3.org/Graphics/SVG/1.1/DTD/svg11.dtd">
<!-- Uploaded to: SVG Repo, www.svgrepo.com, Generator: SVG Repo Mixer Tools -->
<svg height="800px" width="800px" version="1.1" id="_x32_" xmlns="http://www.w3.org/2000/svg" xmlns:xlink="http://www.w3.org/1999/xlink" 
	 viewBox="0 0 512 512"  xml:space="preserve">
<style type="text/css">
	.st0{fill:#d3455bff}
</style>
<g>
	<path class="st0" d="M47.436,302.806c26.222,0,47.417-21.236,47.417-47.436c0-26.192-21.195-47.437-47.417-47.437
		C21.236,207.932,0,229.178,0,255.37C0,281.57,21.236,302.806,47.436,302.806z"/>
	<path class="st0" d="M47.386,318.985c-25.506,0-46.324,20.679-46.324,46.314v57.588h54.876l35.408-72.328
		C85.278,332.106,67.946,318.985,47.386,318.985z"/>
	<path class="st0" d="M125.037,212.114c23.48,0,42.481-19.01,42.481-42.5c0-23.45-19.001-42.49-42.481-42.49
		c-23.47,0-42.49,19.04-42.49,42.49C82.547,193.104,101.568,212.114,125.037,212.114z"/>
	<path class="st0" d="M83.431,310.563v9.158h23.023l42.113-85.825c-6.684-4.708-14.739-7.3-23.53-7.3
		c-5.94,0-11.64,1.231-16.715,3.466c3.218,7.806,5.075,16.338,5.075,25.267C113.397,278.492,101.508,298.793,83.431,310.563z"/>
	<path class="st0" d="M250.989,129.825c23.48,0,42.49-19.01,42.49-42.5c0-23.45-19.01-42.49-42.49-42.49
		c-23.47,0-42.49,19.04-42.49,42.49C208.499,110.815,227.519,129.825,250.989,129.825z"/>
	<path class="st0" d="M250.989,144.276c-22.944,0-41.577,18.614-41.577,41.587v18.026h83.153v-18.026
		C292.566,162.89,273.962,144.276,250.989,144.276z"/>
	<polygon class="st0" points="176.149,219.871 66.437,443.745 66.437,467.166 445.563,467.166 445.563,443.745 335.851,219.871 	"/>
	<path class="st0" d="M464.563,302.806c26.202,0,47.437-21.236,47.437-47.436c0-26.192-21.235-47.437-47.437-47.437
		c-26.221,0-47.417,21.246-47.417,47.437C417.146,281.57,438.342,302.806,464.563,302.806z"/>
	<path class="st0" d="M464.613,318.985c-20.56,0-37.892,13.121-43.961,31.575l35.409,72.328h54.876v-57.588
		C510.937,339.664,490.119,318.985,464.613,318.985z"/>
	<path class="st0" d="M386.962,212.114c23.471,0,42.491-19.01,42.491-42.5c0-23.45-19.02-42.49-42.491-42.49
		c-23.48,0-42.48,19.04-42.48,42.49C344.482,193.104,363.482,212.114,386.962,212.114z"/>
	<path class="st0" d="M386.962,226.596c-8.789,0-16.844,2.592-23.529,7.3l42.113,85.825h23.024v-9.158
		c-18.078-11.77-29.966-32.071-29.966-55.234c0-8.929,1.857-17.461,5.075-25.267C398.603,227.826,392.902,226.596,386.962,226.596z"
		/>
</g>
</svg>