<?xml version="1.0" encoding="iso-8859-1"?>
<!-- Uploaded to: SVG Repo, www.svgrepo.com, Generator: SVG Repo Mixer Tools -->
<svg fill="#d3455bff" version="1.1" id="Capa_1" xmlns="http://www.w3.org/2000/svg" xmlns:xlink="http://www.w3.org/1999/xlink" 
	 viewBox="0 0 511 511" xml:space="preserve">
<g>
	<polygon points="223,112.648 288,125.648 288,135.5 303,135.5 303,113.352 208,94.352 208,135.5 223,135.5 	"/>
	<path d="M414.047,416l-23.851-174.905L303,225.241v-23.617c9.642-10.833,15.213-24.408,15.922-38.94L335,146.606V87.5
		c0-21.78-17.72-39.5-39.5-39.5h-80C193.72,48,176,65.72,176,87.5v59.113l16.237,16.19c1.21,14.483,6.969,27.648,15.763,37.948
		v24.489l-87.196,15.854L96.953,416H0v47h511v-47H414.047z M152,416h-34.258L152,396.424V416z M223,213.682
		c9.003,5.604,19.432,8.955,30.552,9.289c0.659,0.02,1.315,0.03,1.971,0.03c11.614,0,22.743-3.101,32.478-8.927v13.18l-32.5,19.5
		l-32.5-19.5V213.682z M255.5,268l15,20h-30L255.5,268z M288.846,288l36.247-43.496l25.227,4.587L330.865,288H288.846z M180.135,288
		l-19.455-38.91l25.227-4.587L222.154,288H180.135z M167,303h177v113H167V303z M359,396.424L393.258,416H359V396.424z
		 M396.83,400.765L359,379.147V288h-11.365l18.057-36.115l11.112,2.021L396.83,400.765z M308.137,241.421l-28.327,33.992
		l-13.32-17.76l30.447-18.269L308.137,241.421z M206.925,156.266L191,140.387V87.5c0-13.509,10.991-24.5,24.5-24.5h80
		c13.509,0,24.5,10.991,24.5,24.5v52.894l-16,16v3.106c0,13.23-5.23,25.592-14.728,34.809c-9.493,9.212-22.028,14.06-35.271,13.669
		c-25.286-0.759-45.914-22.183-46.961-48.772L206.925,156.266z M214.063,239.384l30.447,18.269l-13.32,17.76l-28.327-33.992
		L214.063,239.384z M134.196,253.906l11.112-2.021L163.365,288H152v91.147l-37.83,21.617L134.196,253.906z M496,448H15v-17h79.908
		H152h7.5h192h7.5h57.092H496V448z"/>
	<rect x="223.5" y="352" width="64" height="15"/>
</g>
</svg>