<?xml version="1.0" encoding="iso-8859-1"?>
<!-- Uploaded to: SVG Repo, www.svgrepo.com, Generator: SVG Repo Mixer Tools -->
<svg fill="#d3455bff" height="800px" width="800px" version="1.1" id="Layer_1" xmlns="http://www.w3.org/2000/svg" xmlns:xlink="http://www.w3.org/1999/xlink" 
	 viewBox="0 0 511.998 511.998" xml:space="preserve">
<g>
	<g>
		<circle cx="107.569" cy="123.23" r="34.084"/>
	</g>
</g>
<g>
	<g>
		<circle cx="404.423" cy="125.343" r="34.084"/>
	</g>
</g>
<g>
	<g>
		<path d="M497.639,164.487c-9.014-1.142-17.216,5.233-18.354,14.227l-16.154,127.551h-6.905V198.008
			c0.049-6.421-2.173-12.569-6.855-16.963s-10.984-6.634-17.388-6.179l-39.081,2.774c-10.241,0.727-18.431,8.047-20.737,17.514
			l42.105-6.878l-49.284,22.613l-56.781-6.472c-8.471-0.961-16.127,5.12-17.093,13.594c-0.851,7.464,3.774,14.285,10.678,16.466
			h-23.219h-0.633l-25.007-45.643c-2.904-5.304-9.56-7.245-14.861-4.342c-5.303,2.905-7.246,9.559-4.341,14.862
			c30.286,55.28,30.686,55.859,30.691,55.863h-80.627l34.708-6.479c8.288-1.546,13.92-9.581,12.347-18.013
			c-1.44-7.719-8.669-14.093-18.886-12.185c-7.591-16.905-8.072-17.976-13.132-29.246c-2.476-5.515-8.954-7.977-14.472-5.502
			c-5.515,2.477-7.978,8.956-5.502,14.472c5.835,12.993,2.825,6.291,10.962,24.41l-33.213,6.2l-43.396-37.782l26.885,13.784
			l0.338-4.752c0.9-12.684-8.652-23.697-21.337-24.597l-39.081-2.774c-13.379-0.949-24.346,9.714-24.243,23.143v108.258h-6.906
			L32.713,176.601c-1.139-8.996-9.351-15.369-18.354-14.227c-8.997,1.14-15.367,9.356-14.227,18.354l17.973,141.91
			c1.04,8.205,8.019,14.358,16.29,14.358h44.837v48.484H68.657c-2.904,0-5.688,1.154-7.741,3.206l-15.478,15.478
			c-4.276,4.276-4.276,11.208,0,15.482c4.277,4.275,11.206,4.275,15.482,0l12.272-12.272h32.869l12.272,12.272
			c4.278,4.276,11.206,4.275,15.482,0c4.276-4.276,4.276-11.208,0-15.482l-15.478-15.478c-2.053-2.052-4.838-3.206-7.741-3.206
			h-9.47v-48.485h35.606c6.608,0,12.288-3.911,14.893-9.536c0-15.2,0-29.154,0-44.34l-16.775-4.331l0.389-5.473
			c0,0-14.751-19.948-42.307-58.927l49.027,42.685c6.146,5.35,12.676,3.589,15.019,3.152c-9.818,10.137-3.058,27.184,11.069,27.8
			v33.144c4.734-2.711,10.209-4.27,16.046-4.27h5.85v-28.837h131.5v123.828c0,6.045,4.902,10.947,10.947,10.947
			s10.947-4.902,10.947-10.947V287.981c8.33-0.793,14.847-7.804,14.847-16.342c0-9.069-7.352-16.421-16.421-16.421h-14.179
			c3.598-1.794,6.076-5.5,6.076-9.792c0-2.783-1.044-5.359-2.847-7.345c37.845,4.314,37.931,5.066,43.143,2.677l53.195-24.408
			l-51.615,41.811l1.614,22.741l-17.391,4.49c0,15.041,0,27.205,0,42.655c2.223,6.434,8.319,11.063,15.509,11.063h35.606v46.294
			h-9.47c-2.904,0-5.688,1.154-7.741,3.206l-15.478,15.478c-4.276,4.276-4.276,11.208,0,15.482c4.277,4.275,11.206,4.275,15.482,0
			l12.272-12.272h32.87l12.271,12.272c4.278,4.276,11.206,4.275,15.482,0c4.276-4.276,4.276-11.206,0-15.482l-15.477-15.478
			c-2.052-2.052-4.838-3.206-7.741-3.206h-10.575V339.11h44.838c8.272,0,15.252-6.153,16.29-14.358l17.972-141.91
			C513.006,173.844,506.637,165.626,497.639,164.487z"/>
	</g>
</g>
<g>
	<g>
		<path d="M268.767,333.941h-14.111c0-12.092,0.288-13.507-1.118-17.044c-2.312-5.816-7.985-9.943-14.614-9.943h-24.41
			c-2.987,0-5.77,0.852-8.151,2.303c-2.904,1.77-5.191,4.446-6.462,7.642c-1.435,3.609-1.118,5.229-1.118,17.044h-14.691
			c-8.48,0-15.354,6.875-15.354,15.355v58.127c0,8.48,6.874,15.354,15.354,15.354h84.674c8.48,0,15.354-6.875,15.354-15.354v-58.127
			C284.12,340.816,277.245,333.941,268.767,333.941z M240.581,333.941h-27.727v-11.254h0.001c0-0.916,0.744-1.659,1.658-1.659h24.41
			c0.914,0,1.658,0.744,1.658,1.659V333.941z"/>
	</g>
</g>
</svg>